# xmcd
#
# Track frame offsets:
#	150
#	18107
#	34530
#	53575
#	71685
#	88532
#	109745
#	132372
#	150795
#	168545
#	181817
#	197412
#	216715
#
# Disc length: 3199
#
# Revision: 1
# Processed by: cddbd v1.5.1PL0 Copyright (c) Steve Scherf et al.
# Submitted via: Feurio! 1.63 - http://www.feurio.com
# Normalized: r0:DSETVAR1
#
DISCID=a20c7d0d
DTITLE=Various Artist - SEXY SOUL
DYEAR=1900
DGENRE=
TTITLE0=ARETHA FRANKLIN WITH GEORGE MICHAEL - I KNEW YOU WERE WAITING (FOR ME)
TTITLE1=DOROTHY MOORE - MISTY BLUE
TTITLE2=BILLY OCEAN - LOVE ZONE
TTITLE3=ROGER - I WANT TO BE YOUR MAN
TTITLE4=GLADYS KNIGHT and THE PIPS - BEST THING THAT EVER HAPPENED TO ME
TTITLE5=FREDDIE JACKSON - YOU ARE MY LADY
TTITLE6=STEVIE B - BECAUSE I LOVE YOU (THE POSTMAN SONG)
TTITLE7=GREGORY ABBOTT - SHAKE YOU DOWN
TTITLE8=PEABO BRYSON - IF EVER YOU'RE IN MY ARMS AGAIN
TTITLE9=HOT - ANGEL IN YOUR ARMS
TTITLE10=WILLIAM DE VAUGHN - THANKFUL FOR WHAT YOU'VE GOT
TTITLE11=GRAYSON HUGH - TALK IT OVER
TTITLE12=BETTY WRIGHT - NO PAIN NO GAIN
EXTD=
EXTT0=
EXTT1=
EXTT2=
EXTT3=
EXTT4=
EXTT5=
EXTT6=
EXTT7=
EXTT8=
EXTT9=
EXTT10=
EXTT11=
EXTT12=
PLAYORDER=
